<?xml version="1.0" encoding="utf-8"?>
<!-- Generator: Adobe Illustrator 20.0.0, SVG Export Plug-In . SVG Version: 6.00 Build 0)  -->
<svg version="1.1" id="Layer_1" xmlns="http://www.w3.org/2000/svg" xmlns:xlink="http://www.w3.org/1999/xlink" x="0px" y="0px"
	 viewBox="0 0 200.6 80" style="enable-background:new 0 0 200.6 80;" xml:space="preserve">
<style type="text/css">
	.st0{fill:#9B9B9B;}
	.st1{fill:#C1272D;}
</style>
<path id="XMLID_1_" class="st0" d="M-661.9,409.9"/>
<g id="XMLID_2_">
	<path id="XMLID_82_" d="M23.3,46.7c-6.5,0-12-2.3-16.5-6.8C2.3,35.3,0,29.8,0,23.3c0-6.4,2.3-11.8,6.8-16.4S16.8,0,23.3,0v13.4
		c-1.4,0-2.7,0.2-3.9,0.7c-1.3,0.5-2.3,1.2-3.3,2.2c-0.9,0.9-1.6,2-2.1,3.2s-0.7,2.5-0.7,3.8c0,2.8,0.9,5.1,2.8,7.1c2,2,4.3,3,7.2,3
		h19.9c6.5,0,12,2.3,16.5,6.8c4.6,4.6,6.9,10.1,6.9,16.5s-2.3,11.9-6.9,16.5c-4.5,4.5-10,6.8-16.5,6.8V66.6c1.4,0,2.7-0.2,3.9-0.7
		c1.3-0.5,2.4-1.2,3.3-2.1s1.6-1.9,2.1-3.2c0.5-1.2,0.8-2.5,0.8-3.9c0-2.7-1.1-5-3-7c-2-2-4.3-3-7.1-3
		C43.2,46.7,23.3,46.7,23.3,46.7z"/>
	<path id="XMLID_84_" class="st1" d="M82.5,40l40,40h-18.8L69.1,45.6l-5.6-5.5l5.6-5.6l1.7,12.8L94.6,9.1l9.1-9.1h18.8L82.5,40z
		 M94.6,9.1l9.1-9.1 M103.7,80L69.1,45.6L103.7,80z"/>
	<path id="XMLID_88_" d="M200.6,26.7c0,7.3-2.5,13.7-7.8,18.9c-5.2,5.2-11.5,7.8-18.8,7.8h-26.7V80H134V40h13.3H174
		c3.6,0,6.7-1.3,9.3-3.9s4-5.7,4-9.4c0-3.6-1.3-6.8-4-9.4c-2.6-2.6-5.7-3.9-9.3-3.9h-26.7L134,0h40c7.3,0,13.6,2.6,18.8,7.8
		C198,13.1,200.6,19.4,200.6,26.7z"/>
</g>
<g id="XMLID_81_">
</g>
<g id="XMLID_90_">
</g>
<g id="XMLID_91_">
</g>
<g id="XMLID_92_">
</g>
<g id="XMLID_93_">
</g>
<g id="XMLID_94_">
</g>
<g id="XMLID_95_">
</g>
<g id="XMLID_96_">
</g>
<g id="XMLID_97_">
</g>
<g id="XMLID_98_">
</g>
<g id="XMLID_99_">
</g>
<g id="XMLID_100_">
</g>
<g id="XMLID_101_">
</g>
<g id="XMLID_102_">
</g>
<g id="XMLID_103_">
</g>
</svg>
